<!--?xml version="1.0" standalone="no"?-->              <svg id="sw-js-blob-svg" viewBox="0 0 100 100" xmlns="http://www.w3.org/2000/svg">                    <defs>                         <linearGradient id="sw-gradient" x1="0" x2="1" y1="1" y2="0">                            <stop id="stop1" stop-color="rgba(248, 117, 55, 1)" offset="0%"></stop>                            <stop id="stop2" stop-color="rgba(251, 168, 31, 1)" offset="100%"></stop>                        </linearGradient>                    </defs>                <path fill="url(#sw-gradient)" d="M19.9,-26.1C24.5,-19.9,25.9,-12.4,26.4,-5.3C26.8,1.7,26.2,8.2,23.1,13C20,17.8,14.3,20.9,8.3,23.3C2.3,25.6,-4.1,27.3,-11.4,26.6C-18.6,26,-26.7,23,-31,17.2C-35.3,11.3,-35.8,2.4,-34.1,-5.8C-32.4,-14.1,-28.5,-21.7,-22.5,-27.6C-16.4,-33.5,-8.2,-37.7,-0.3,-37.4C7.7,-37.1,15.3,-32.2,19.9,-26.1Z" width="100%" height="100%" transform="translate(50 50)" stroke-width="0" style="transition: all 0.3s ease 0s;"></path>              </svg>