<svg width="29" height="29" viewBox="0 0 29 29" fill="none" xmlns="http://www.w3.org/2000/svg">
<path d="M19.9131 14.9326C19.9131 14.287 20.4364 13.7637 21.082 13.7637C21.7276 13.7637 22.251 14.287 22.251 14.9326C22.251 15.5782 21.7276 16.1016 21.082 16.1016C20.4364 16.1016 19.9131 15.5782 19.9131 14.9326Z" stroke="#6D6D6D" stroke-width="2.3379" stroke-linecap="round" stroke-linejoin="round"/>
<path d="M12.8994 14.9326C12.8994 14.287 13.4228 13.7637 14.0684 13.7637C14.714 13.7637 15.2373 14.287 15.2373 14.9326C15.2373 15.5782 14.714 16.1016 14.0684 16.1016C13.4228 16.1016 12.8994 15.5782 12.8994 14.9326Z" stroke="#6D6D6D" stroke-width="2.3379" stroke-linecap="round" stroke-linejoin="round"/>
<path d="M5.88574 14.9326C5.88574 14.287 6.4091 13.7637 7.05469 13.7637C7.70029 13.7637 8.22364 14.287 8.22364 14.9326C8.22364 15.5782 7.70029 16.1016 7.05469 16.1016C6.4091 16.1016 5.88574 15.5782 5.88574 14.9326Z" stroke="#6D6D6D" stroke-width="2.3379" stroke-linecap="round" stroke-linejoin="round"/>
</svg>
