<svg width="16" height="22" viewBox="0 0 16 22" fill="none" xmlns="http://www.w3.org/2000/svg">
<path d="M7.8125 0C3.50488 0 0 3.35205 0 7.4707C0 9.43213 0.894043 12.0405 2.65723 15.2236C4.07324 17.7793 5.71143 20.0903 6.56348 21.2402C6.70745 21.4367 6.8957 21.5965 7.11296 21.7066C7.33022 21.8168 7.57038 21.8742 7.81396 21.8742C8.05755 21.8742 8.29771 21.8168 8.51497 21.7066C8.73223 21.5965 8.92048 21.4367 9.06445 21.2402C9.91504 20.0903 11.5547 17.7793 12.9707 15.2236C14.731 12.0415 15.625 9.43311 15.625 7.4707C15.625 3.35205 12.1201 0 7.8125 0ZM7.8125 10.9375C7.19443 10.9375 6.59025 10.7542 6.07634 10.4108C5.56244 10.0675 5.1619 9.5794 4.92538 9.00839C4.68885 8.43737 4.62697 7.80903 4.74755 7.20284C4.86812 6.59665 5.16575 6.03983 5.60279 5.60279C6.03983 5.16575 6.59665 4.86812 7.20284 4.74755C7.80903 4.62697 8.43737 4.68885 9.00839 4.92538C9.5794 5.1619 10.0675 5.56244 10.4108 6.07634C10.7542 6.59025 10.9375 7.19443 10.9375 7.8125C10.9366 8.64102 10.6071 9.43535 10.0212 10.0212C9.43535 10.6071 8.64102 10.9366 7.8125 10.9375Z" fill="#009FCA"/>
</svg>
