<svg width="15" height="21" viewBox="0 0 15 21" fill="none" xmlns="http://www.w3.org/2000/svg">
<path d="M7.5 1.09094C3.91146 1.09094 1 3.88154 1 7.31852C1 11.2733 5.33333 17.5404 6.92448 19.705C6.99053 19.7964 7.07709 19.8708 7.17711 19.922C7.27713 19.9733 7.38777 20 7.5 20C7.61223 20 7.72287 19.9733 7.82289 19.922C7.92291 19.8708 8.00947 19.7964 8.07552 19.705C9.66667 17.5413 14 11.2764 14 7.31852C14 3.88154 11.0885 1.09094 7.5 1.09094Z" stroke="#009FCA" stroke-width="1.5625" stroke-linecap="round" stroke-linejoin="round"/>
<path d="M7.50002 9.36369C8.47907 9.36369 9.27275 8.57001 9.27275 7.59096C9.27275 6.61191 8.47907 5.81824 7.50002 5.81824C6.52097 5.81824 5.72729 6.61191 5.72729 7.59096C5.72729 8.57001 6.52097 9.36369 7.50002 9.36369Z" stroke="#009FCA" stroke-width="1.5625" stroke-linecap="round" stroke-linejoin="round"/>
</svg>
