<svg width="428" height="460" viewBox="0 0 428 460" fill="none" xmlns="http://www.w3.org/2000/svg">
<g clip-path="url(#clip0_1364_357)">
<path opacity="0.35" d="M1031.94 310.046C1024.54 307.614 1017.22 307.238 1010.61 308.608C985.629 313.574 961.945 338.818 938.911 364.986C915.877 391.154 892.74 418.727 867.995 429.139C785.443 463.802 717.162 308.231 640.907 258.086C571.805 212.669 498.596 251.921 431.514 314.739C363.233 378.618 292.728 468.323 221.744 430.133C171.774 403.245 129.95 316.211 83.7799 259.011C1.946 157.489 -84.9533 159.75 -169.662 208.867V480.208H1031.94V310.046Z" fill="#009FCA"/>
<path opacity="0.35" d="M504.449 460C501.54 455.205 498.631 450.512 495.756 445.786C426.928 335.05 344.101 277.952 261.959 284.392C184.096 290.591 109.141 355.293 44.5229 459.931H504.449V460Z" fill="#009FCA"/>
<path opacity="0.35" d="M676.365 368.856C617.771 238.46 548.909 99.4669 470.189 132.691C414.641 156.119 378.088 285.316 329.213 348.237C265.724 429.893 215.96 325.596 159.145 255.449C82.4795 160.914 -12.2233 186.637 -80.5722 320.527C-101.724 362.006 -121.951 414.24 -143 458.664H676.365V368.856Z" fill="#009FCA"/>
</g>
<defs>
<clipPath id="clip0_1364_357">
<rect width="767" height="460" fill="white" transform="translate(-143)"/>
</clipPath>
</defs>
</svg>
